# xmcd CD database file
#
# Track frame offsets:
#	150
#	19223
#	32786
#	54233
#	72027
#	87610
#	103617
#	122372
#	142604
#
# Disc length: 2275 seconds
#
# Revision: 0
# Processed by: cddbd v1.5.2PL0 Copyright (c) Steve Scherf et al.
# Submitted via: CDex 1.51
#
DISCID=6b08e109
DTITLE=The George Shearing Quintet - On The Sunny Side Of The Strip
DYEAR=1958
DGENRE=Jazz
TTITLE0=Jordu (Duke Jordan)
TTITLE1=As I Love You (Raymond Evans - Jay Livingston)
TTITLE2=Confirmation (Charlie Parker)
TTITLE3=The Nearness Of You (Ned Washington - Hoagy Carmichael)
TTITLE4=Mambo Inn (Grace Sampson /Bobby Woodlen - Mario Bauza)
TTITLE5=Bernie's Tune (Jerry Leiber - Mike Stoller - Bernie Miller)
TTITLE6=Some Other Spring (Arthur Herzog Jr. - Irene Kitchings)
TTITLE7=Joy Sprin (Clifford Brown)
TTITLE8=Drume Negrita (Ernesto Grenet)
EXTD=YEAR: 1958
EXTT0=
EXTT1=
EXTT2=
EXTT3=
EXTT4=
EXTT5=
EXTT6=
EXTT7=
EXTT8=
PLAYORDER=
